<svg xmlns="http://www.w3.org/2000/svg" viewBox="0 0 64 64" role="img" aria-labelledby="title desc">
  <title id="title">ESG Burger Favicon</title>
  <desc id="desc">A simplified original burger favicon for EatStatGram Burger Edition.</desc>
  <rect width="64" height="64" rx="14" fill="transparent"/>
  <g fill="none" stroke-linecap="round" stroke-linejoin="round">
    <path d="M14 28c2-12 11-20 18-20s16 8 18 20" stroke="#E7B56A" stroke-width="4.2"/>
    <path d="M13 29h38" stroke="#E7B56A" stroke-width="4.2"/>
    <path d="M15 36c4-3 7 3 11 0s7-3 11 0 7 3 12 0" stroke="#FF5A4F" stroke-width="4.2"/>
    <path d="M15 44h34" stroke="#4A2E24" stroke-width="5.2"/>
    <path d="M18 52h28" stroke="#E7B56A" stroke-width="4.2"/>
  </g>
  <g fill="#E7B56A">
    <ellipse cx="25" cy="17" rx="1.6" ry="2.7" transform="rotate(-28 25 17)"/>
    <ellipse cx="33" cy="15" rx="1.6" ry="2.7" transform="rotate(18 33 15)"/>
    <ellipse cx="40" cy="18" rx="1.6" ry="2.7" transform="rotate(-18 40 18)"/>
  </g>
</svg>
